HIERARCHY
ROOT Hips
{
    OFFSET   0.000000   0.000000   0.000000
    CHANNELS 6 Xposition Yposition Zposition Zrotation Xrotation Yrotation
    JOINT Chest
    {
        OFFSET   0.000000   8.007230   0.000000
        CHANNELS 3 Zrotation Xrotation Yrotation
        JOINT Chest2
        {
            OFFSET   0.000000  22.077100   0.000000
            CHANNELS 3 Zrotation Xrotation Yrotation
            JOINT Neck
            {
                OFFSET   0.000000  23.255100   0.000000
                CHANNELS 3 Zrotation Xrotation Yrotation
                JOINT Head
                {
                    OFFSET   0.000000  14.370100   1.956600
                    CHANNELS 3 Zrotation Xrotation Yrotation
                    End Site
                    {
                        OFFSET   0.000000  19.566000   0.000000
                    }
                }
            }
            JOINT LeftCollar
            {
                OFFSET   3.911900  19.017000  -0.467063
                CHANNELS 3 Zrotation Xrotation Yrotation
                JOINT LeftShoulder
                {
                    OFFSET  10.383700   0.000000   0.000000
                    CHANNELS 3 Zrotation Xrotation Yrotation
                    JOINT LeftElbow
                    {
                        OFFSET  26.662100   0.001193   0.000980
                        CHANNELS 3 Zrotation Xrotation Yrotation
                        JOINT LeftWrist
                        {
                            OFFSET  28.869000  -0.000059  -0.000082
                            CHANNELS 3 Zrotation Xrotation Yrotation
                            JOINT LeftFinger0
                            {
                                OFFSET   2.044650  -2.323450   3.252850
                                CHANNELS 3 Zrotation Xrotation Yrotation
                                JOINT LeftFinger01
                                {
                                    OFFSET   3.088130   0.000000   0.000000
                                    CHANNELS 3 Zrotation Xrotation Yrotation
                                    JOINT LeftFinger02
                                    {
                                        OFFSET   2.639460   0.000000   0.000000
                                        CHANNELS 3 Zrotation Xrotation Yrotation
                                        End Site
                                        {
                                            OFFSET   2.582190   0.000000   0.000000
                                        }
                                    }
                                }
                            }
                            JOINT LeftFinger1
                            {
                                OFFSET   8.364480   0.000000   3.252850
                                CHANNELS 3 Zrotation Xrotation Yrotation
                                JOINT LeftFinger11
                                {
                                    OFFSET   4.646930   0.000000   0.000000
                                    CHANNELS 3 Zrotation Xrotation Yrotation
                                    JOINT LeftFinger12
                                    {
                                        OFFSET   2.323470   0.000000   0.000000
                                        CHANNELS 3 Zrotation Xrotation Yrotation
                                        End Site
                                        {
                                            OFFSET   2.273050   0.000000   0.000000
                                        }
                                    }
                                }
                            }
                            JOINT LeftFinger2
                            {
                                OFFSET   8.364490   0.000016   1.078090
                                CHANNELS 3 Zrotation Xrotation Yrotation
                                JOINT LeftFinger21
                                {
                                    OFFSET   5.111610   0.000000   0.000000
                                    CHANNELS 3 Zrotation Xrotation Yrotation
                                    JOINT LeftFinger22
                                    {
                                        OFFSET   2.788150   0.000016   0.000000
                                        CHANNELS 3 Zrotation Xrotation Yrotation
                                        End Site
                                        {
                                            OFFSET   2.727660   0.000000   0.000000
                                        }
                                    }
                                }
                            }
                            JOINT LeftFinger3
                            {
                                OFFSET   7.899780   0.000015  -1.078090
                                CHANNELS 3 Zrotation Xrotation Yrotation
                                JOINT LeftFinger31
                                {
                                    OFFSET   4.646930   0.000000   0.000000
                                    CHANNELS 3 Zrotation Xrotation Yrotation
                                    JOINT LeftFinger32
                                    {
                                        OFFSET   2.323470   0.000000   0.000000
                                        CHANNELS 3 Zrotation Xrotation Yrotation
                                        End Site
                                        {
                                            OFFSET   2.273050   0.000000   0.000000
                                        }
                                    }
                                }
                            }
                            JOINT LeftFinger4
                            {
                                OFFSET   7.435090   0.000000  -3.252850
                                CHANNELS 3 Zrotation Xrotation Yrotation
                                JOINT LeftFinger41
                                {
                                    OFFSET   3.717550   0.000000   0.000000
                                    CHANNELS 3 Zrotation Xrotation Yrotation
                                    JOINT LeftFinger42
                                    {
                                        OFFSET   1.858770   0.000000   0.000000
                                        CHANNELS 3 Zrotation Xrotation Yrotation
                                        End Site
                                        {
                                            OFFSET   1.818440   0.000000   0.000000
                                        }
                                    }
                                }
                            }
                        }
                    }
                }
            }
            JOINT RightCollar
            {
                OFFSET  -3.911910  19.017000  -0.467062
                CHANNELS 3 Zrotation Xrotation Yrotation
                JOINT RightShoulder
                {
                    OFFSET -10.383700   0.000014   0.000000
                    CHANNELS 3 Zrotation Xrotation Yrotation
                    JOINT RightElbow
                    {
                        OFFSET -26.662100   0.001225   0.001091
                        CHANNELS 3 Zrotation Xrotation Yrotation
                        JOINT RightWrist
                        {
                            OFFSET -28.869000  -0.000020  -0.000085
                            CHANNELS 3 Zrotation Xrotation Yrotation
                            JOINT RightFinger0
                            {
                                OFFSET  -2.044650  -2.323490   3.252850
                                CHANNELS 3 Zrotation Xrotation Yrotation
                                JOINT RightFinger01
                                {
                                    OFFSET  -3.088130   0.000000   0.000000
                                    CHANNELS 3 Zrotation Xrotation Yrotation
                                    JOINT RightFinger02
                                    {
                                        OFFSET  -2.639460   0.000000   0.000000
                                        CHANNELS 3 Zrotation Xrotation Yrotation
                                        End Site
                                        {
                                            OFFSET  -2.582190   0.000000   0.000000
                                        }
                                    }
                                }
                            }
                            JOINT RightFinger1
                            {
                                OFFSET  -8.364480   0.000000   3.252850
                                CHANNELS 3 Zrotation Xrotation Yrotation
                                JOINT RightFinger11
                                {
                                    OFFSET  -4.646930   0.000000   0.000000
                                    CHANNELS 3 Zrotation Xrotation Yrotation
                                    JOINT RightFinger12
                                    {
                                        OFFSET  -2.323470   0.000000   0.000000
                                        CHANNELS 3 Zrotation Xrotation Yrotation
                                        End Site
                                        {
                                            OFFSET  -2.273050   0.000000   0.000000
                                        }
                                    }
                                }
                            }
                            JOINT RightFinger2
                            {
                                OFFSET  -8.364480   0.000000   1.078090
                                CHANNELS 3 Zrotation Xrotation Yrotation
                                JOINT RightFinger21
                                {
                                    OFFSET  -5.111620   0.000000   0.000000
                                    CHANNELS 3 Zrotation Xrotation Yrotation
                                    JOINT RightFinger22
                                    {
                                        OFFSET  -2.788160   0.000000   0.000000
                                        CHANNELS 3 Zrotation Xrotation Yrotation
                                        End Site
                                        {
                                            OFFSET  -2.727660   0.000000   0.000000
                                        }
                                    }
                                }
                            }
                            JOINT RightFinger3
                            {
                                OFFSET  -7.899780   0.000000  -1.078090
                                CHANNELS 3 Zrotation Xrotation Yrotation
                                JOINT RightFinger31
                                {
                                    OFFSET  -4.646930   0.000000   0.000000
                                    CHANNELS 3 Zrotation Xrotation Yrotation
                                    JOINT RightFinger32
                                    {
                                        OFFSET  -2.323470   0.000000   0.000000
                                        CHANNELS 3 Zrotation Xrotation Yrotation
                                        End Site
                                        {
                                            OFFSET  -2.273050   0.000000   0.000000
                                        }
                                    }
                                }
                            }
                            JOINT RightFinger4
                            {
                                OFFSET  -7.435090   0.000000  -3.252850
                                CHANNELS 3 Zrotation Xrotation Yrotation
                                JOINT RightFinger41
                                {
                                    OFFSET  -3.717550   0.000000   0.000000
                                    CHANNELS 3 Zrotation Xrotation Yrotation
                                    JOINT RightFinger42
                                    {
                                        OFFSET  -1.858760   0.000000   0.000000
                                        CHANNELS 3 Zrotation Xrotation Yrotation
                                        End Site
                                        {
                                            OFFSET  -1.818440   0.000000   0.000000
                                        }
                                    }
                                }
                            }
                        }
                    }
                }
            }
        }
    }
    JOINT LeftHip
    {
        OFFSET   9.783030   0.000000   0.000000
        CHANNELS 3 Zrotation Xrotation Yrotation
        JOINT LeftKnee
        {
            OFFSET   0.000063 -41.789100   0.000608
            CHANNELS 3 Zrotation Xrotation Yrotation
            JOINT LeftAnkle
            {
                OFFSET   0.000048 -41.133200  -0.000184
                CHANNELS 3 Zrotation Xrotation Yrotation
                JOINT LeftToe
                {
                    OFFSET   0.000000  -6.358960  14.674500
                    CHANNELS 3 Zrotation Xrotation Yrotation
                    End Site
                    {
                        OFFSET   0.000000   0.000000   3.913200
                    }
                }
            }
        }
    }
    JOINT RightHip
    {
        OFFSET  -9.783030   0.000000   0.000000
        CHANNELS 3 Zrotation Xrotation Yrotation
        JOINT RightKnee
        {
            OFFSET   0.000071 -41.789100   0.001239
            CHANNELS 3 Zrotation Xrotation Yrotation
            JOINT RightAnkle
            {
                OFFSET   0.000037 -41.133200  -0.000166
                CHANNELS 3 Zrotation Xrotation Yrotation
                JOINT RightToe
                {
                    OFFSET   0.000000  -6.358960  14.674500
                    CHANNELS 3 Zrotation Xrotation Yrotation
                    End Site
                    {
                        OFFSET   0.000000   0.000000   3.913200
                    }
                }
            }
        }
    }
}
MOTION
Frames: 6
Frame Time:   0.016667
  0.412593  89.507100  -2.269530  -4.856220  -9.015490  -6.078640   1.297990   5.144820   0.149862   2.598220  10.291700   0.183207   5.939420   4.203040  -0.436869   9.899300   8.248440  -5.592140  -1.124660   0.766724  -1.598880 -75.554700  18.829600  -3.917020  -1.317720  -5.998100 -18.454500  14.261500  -8.898210   5.684780  38.730800  34.117900 -72.090100 -29.467900   0.005328   0.003050  -9.733930   0.004849  -0.029351 -34.388500  11.076900 -15.678700 -29.387800   0.005225   0.000945 -20.571500   0.004663  -0.005175 -28.663400   2.594340  -4.731790 -41.277000   0.002735   0.002034 -27.490500   0.003936   0.003278 -28.665900   2.593920  -4.732010 -41.061200   0.003952   0.004183 -27.346800   0.003441   0.004771 -32.932700   0.696979  -1.070360 -49.408900  -0.004687   0.003267 -32.906300   0.003091   0.006671   6.964530  -0.280100   3.847870  58.365200  14.506200  21.860700 -38.789400 -13.177400  62.919800  35.897800  30.304200 -32.398500 -59.040400  54.333200 108.293000 -15.695000  -0.008021  -0.002231 -12.847500  -0.004525   0.004530   1.096000   0.623359  29.704800   0.929302   0.000000  -0.000826   0.650503  -0.007166  -0.000874   4.368200   1.360160  17.275600   4.573330  -0.001971  -0.000796   3.045820  -0.002477  -0.001736  10.350400  -0.294594  -1.604990  10.353400   0.000072   0.000163   6.895380  -0.000691   0.000491  35.717000  -9.852720 -13.379900  55.307800  -0.001274  -0.000672  36.835000   0.000854  -0.000489   3.972930  13.350300   3.295830   1.096040  -0.038228   8.303440  -1.971100  -4.770160   3.395810  -0.000000   0.000000   0.000000   4.750490  10.702900  -8.195290  -0.555643   1.036970  -7.116160  -1.058320  -3.075670   2.602750   0.000000   0.000000   0.000000
  0.424635  89.507100  -2.266070  -4.846950  -9.010000  -6.026510   1.290860   5.147180   0.203554   2.578250  10.297100   0.291854   5.874820   4.113410  -0.422895   9.785850   8.078260  -5.439030  -1.155870   0.728114  -1.643740 -75.531900  18.815700  -3.942830  -1.309750  -5.981850 -18.443000  14.261000  -8.885850   5.684840  38.722100  34.061700 -72.008700 -29.455100   0.005335   0.003054  -9.727510   0.004851  -0.019648 -34.375100  11.076700 -15.684100 -29.377500   0.005228   0.000959 -20.564200   0.004659  -0.005178 -28.664800   2.585650  -4.715940 -41.265000   0.002761   0.001921 -27.482500   0.003881   0.003276 -28.667500   2.585240  -4.716150 -41.062900   0.003952   0.004183 -27.347900   0.003441   0.004772 -32.922600   0.696954  -1.073980 -49.393700  -0.004119   0.003266 -32.896200   0.003092   0.006674   6.986920  -0.321962   3.861940  58.226100  14.437200  21.813000 -38.577500 -13.211600  62.804900  35.440900  30.300800 -32.105900 -59.040400  54.333200 108.293000 -15.695000  -0.008043  -0.002180 -12.847500  -0.004544   0.004564   1.745390   0.982751  29.491100   1.548030  -0.000066  -0.000825   1.083610  -0.007118  -0.000821   5.004110   1.595180  17.647200   5.250740  -0.002057  -0.000818   3.496980  -0.002489  -0.001737  11.178300  -0.199433  -1.009490  11.179100   0.000028   0.000238   7.445300  -0.000812   0.000570  36.218600  -9.385360 -12.552800  55.874900  -0.001151  -0.000659  37.212700   0.000615  -0.000481   3.975490  13.321500   3.289290   1.095240   0.010057   8.285780  -1.976310  -4.797280   3.369060   0.000000   0.000000   0.000000   4.713020  10.701500  -8.258830  -0.516625   1.045550  -7.063170  -1.064060  -3.087570   2.564940   0.000000   0.000000  -0.000000
  0.437102  89.507100  -2.260770  -4.834600  -9.002930  -5.961600   1.282700   5.149540   0.259314   2.557500  10.303600   0.404759   5.809410   4.014320  -0.408091   9.670570   7.889290  -5.300970  -1.185980   0.688436  -1.670090 -75.517400  18.796300  -3.959230  -1.293680  -5.957590 -18.435100  14.265500  -8.879180   5.686460  38.717300  34.007400 -71.932600 -29.434700   0.005341   0.003062  -9.717310   0.004854  -0.008764 -34.358800  11.076500 -15.691300 -29.364800   0.005231   0.000964 -20.555300   0.004656  -0.005181 -28.665800   2.579260  -4.704250 -41.258500   0.002787   0.001780 -27.478200   0.003825   0.003273 -28.668700   2.578900  -4.704440 -41.074600   0.003952   0.004182 -27.355600   0.003441   0.004774 -32.916400   0.696785  -1.076200 -49.384400  -0.003569   0.003266 -32.890000   0.003093   0.006676   6.999970  -0.359179   3.875190  58.218300  14.298600  21.696000 -38.551200 -13.223800  62.771400  35.066700  30.232600 -31.799300 -59.040400  54.333200 108.293000 -15.695000  -0.008065  -0.002130 -12.847500  -0.004561   0.004598   2.310830   1.290100  29.170200   2.165860  -0.000135  -0.000824   1.516090  -0.007071  -0.000766   5.548640   1.798540  17.930300   5.832400  -0.002145  -0.000841   3.884380  -0.002501  -0.001740  11.914900  -0.115124  -0.526324  11.915100   0.000000   0.000316   7.935470  -0.000939   0.000649  36.692600  -8.986510 -11.837000  56.438800  -0.001027  -0.000635  37.588300   0.000387  -0.000459   3.976570  13.275200   3.278830   1.095610   0.080665   8.260780  -1.982810  -4.836070   3.340250  -0.000000   0.000000  -0.000000   4.674970  10.701000  -8.329250  -0.477535   1.049190  -6.998740  -1.069580  -3.098720   2.517140  -0.000000   0.000000  -0.000000
  0.449447  89.507100  -2.251380  -4.815140  -8.996580  -5.874090   1.270960   5.149500   0.308311   2.530830  10.304800   0.503479   5.744860   3.906070  -0.392646   9.556760   7.682010  -5.153730  -1.207690   0.652830  -1.664700 -75.512200  18.775100  -3.955670  -1.271940  -5.947930 -18.458700  14.303600  -8.912640   5.696090  38.714500  33.978800 -71.903900 -29.417300   0.005330   0.003072  -9.708610   0.004855  -0.005795 -34.350200  11.076300 -15.694900 -29.358100   0.005227   0.000934 -20.550700   0.004660  -0.005177 -28.666000   2.577750  -4.701410 -41.293600   0.002813   0.001616 -27.501500   0.003770   0.003273 -28.669000   2.577420  -4.701580 -41.135700   0.003950   0.004179 -27.396300   0.003442   0.004775 -32.941500   0.691507  -1.067140 -49.422000  -0.003033   0.003266 -32.915000   0.003092   0.006676   7.001040  -0.374196   3.889320  58.336500  14.132800  21.509700 -38.528200 -13.429000  62.922300  34.947500  30.127000 -31.623000 -59.040400  54.333200 108.293000 -15.695000  -0.008093  -0.002169 -12.847500  -0.004574   0.004632   2.797130   1.551340  28.986500   2.623260  -0.000208  -0.000831   1.836270  -0.007010  -0.000716   5.900490   1.926460  18.048700   6.206850  -0.002232  -0.000859   4.133760  -0.002517  -0.001746  12.379600  -0.078902  -0.331240  12.379800   0.000000   0.000412   8.244900  -0.001090   0.000726  36.990200  -8.768700 -11.435700  56.806300  -0.000907  -0.000614  37.833000   0.000195  -0.000423   3.970480  13.242300   3.265950   1.101770   0.116029   8.222930  -1.987010  -4.855910   3.307620   0.000000   0.000000   0.000000   4.639200  10.708600  -8.386000  -0.438523   1.041120  -6.964860  -1.075130  -3.106800   2.453020   0.000000   0.000000   0.000000
  0.462209  89.507200  -2.239180  -4.790700  -8.989980  -5.771680   1.257640   5.149320   0.341879   2.499540  10.304900   0.573150   5.677220   3.797600  -0.377206   9.438000   7.474160  -4.981580  -1.225850   0.633836  -1.648230 -75.514300  18.730800  -3.933220  -1.248790  -5.926290 -18.506400  14.359600  -8.970730   5.709790  38.713800  33.968800 -71.899100 -29.407400   0.005319   0.003084  -9.703690   0.004855  -0.005368 -34.346800  11.076300 -15.696300 -29.355500   0.005223   0.000863 -20.548900   0.004667  -0.005172 -28.666200   2.576210  -4.698260 -41.351600   0.002839   0.001429 -27.540100   0.003716   0.003273 -28.669300   2.575950  -4.698390 -41.216100   0.003948   0.004177 -27.450000   0.003445   0.004776 -32.981900   0.683216  -1.052600 -49.482300  -0.002508   0.003266 -32.955200   0.003090   0.006676   7.001050  -0.377086   3.904260  58.481700  13.948100  21.306700 -38.531100 -13.749500  63.197600  34.901000  30.008500 -31.495700 -59.040400  54.333200 108.293000 -15.695000  -0.008121  -0.002225 -12.847500  -0.004586   0.004665   3.168200   1.748380  28.855800   2.960070  -0.000284  -0.000839   2.072040  -0.006947  -0.000672   6.155770   2.016170  18.068400   6.476340  -0.002318  -0.000868   4.313230  -0.002533  -0.001752  12.728500  -0.051177  -0.212576  12.728400   0.000000   0.000512   8.477070  -0.001251   0.000804  37.216800  -8.617550 -11.155500  57.090000  -0.000789  -0.000584  38.021900   0.000000  -0.000381   3.962950  13.210700   3.253330   1.105300   0.140331   8.176360  -1.990580  -4.864120   3.269530  -0.000000   0.000000   0.000000   4.600920  10.721000  -8.415440  -0.398040   1.025880  -6.951540  -1.081070  -3.113240   2.381870   0.000000   0.000000  -0.000000
  0.475454  89.507300  -2.224070  -4.762220  -8.982740  -5.654200   1.242250   5.141680   0.351877   2.467720  10.289800   0.596098   5.603410   3.697490  -0.362459   9.309580   7.282650  -4.753820  -1.241990   0.641839  -1.616920 -75.526000  18.632800  -3.870050  -1.229040  -5.865530 -18.578900  14.413100  -9.035720   5.721330  38.704200  34.000500 -71.938300 -29.439300   0.005324   0.003095  -9.719650   0.004851  -0.005362 -34.355000  11.076400 -15.692800 -29.361900   0.005226   0.000764 -20.553400   0.004672  -0.005173 -28.667500   2.568140  -4.683210 -41.407400   0.002868   0.001218 -27.577200   0.003662   0.003273 -28.670700   2.567940  -4.683310 -41.277300   0.003950   0.004178 -27.490700   0.003448   0.004775 -33.012900   0.676768  -1.041450 -49.528700  -0.001988   0.003266 -32.986100   0.003091   0.006675   6.998000  -0.341261   3.920650  58.696700  13.760300  21.117200 -38.571900 -14.023500  63.507800  34.907400  29.927900 -31.390900 -59.040400  54.333200 108.293000 -15.695000  -0.008143  -0.002251 -12.847500  -0.004599   0.004697   3.328760   1.833380  28.796500   3.108350  -0.000361  -0.000820   2.175830  -0.006894  -0.000644   6.359660   2.085110  18.067200   6.690960  -0.002401  -0.000868   4.456170  -0.002546  -0.001757  13.045500   0.004718   0.025943  13.045200   0.000000   0.000605   8.688070  -0.001419   0.000888  37.395400  -8.440610 -10.865400  57.299000  -0.000671  -0.000535  38.161100  -0.000243  -0.000344   3.958090  13.170600   3.243360   1.102580   0.161153   8.120640  -1.994320  -4.864280   3.222040  -0.000000   0.000000  -0.000000   4.557690  10.734700  -8.406260  -0.352489   1.005440  -6.989900  -1.088000  -3.117620   2.311460  -0.000000   0.000000   0.000000
